<svg xmlns="http://www.w3.org/2000/svg" version="1.1" xmlns:xlink="http://www.w3.org/1999/xlink" xmlns:svgjs="http://svgjs.dev/svgjs" width="1920" height="1080" preserveAspectRatio="none" viewBox="0 0 1920 1080"><g mask="url(&quot;#SvgjsMask1076&quot;)" fill="none"><path d="M911.04-90.43C771.05-80.93 721.24 152.4 423.26 187.2 125.27 222 94.18 580.64-64.53 608.4" stroke="rgba(55, 66, 250, 0.22)" stroke-width="2"></path><path d="M1357.09-75.97C1090.21-31.66 946.92 620.58 529.36 621.07 111.79 621.56-60.34 162.37-298.38 145.87" stroke="rgba(55, 66, 250, 0.22)" stroke-width="2"></path><path d="M1386.74-193.07C1218.74-176.69 1111.45 178.38 823.75 179.67 536.06 180.96 542.26 44.67 260.77 44.67-20.73 44.67-157.49 178.73-302.22 179.67" stroke="rgba(55, 66, 250, 0.22)" stroke-width="2"></path><path d="M1016.33-206.13C867.72-119.66 1026.19 309.28 673.88 390.3 321.56 471.32 189.31 795.09-11.03 811.5" stroke="rgba(55, 66, 250, 0.22)" stroke-width="2"></path><path d="M1733.72-97.1C1563.78-89.93 1428.5 192.89 1118.4 193.2 808.3 193.51 810.74 58.2 503.08 58.2 195.42 58.2 45.25 192.41-112.24 193.2" stroke="rgba(55, 66, 250, 0.22)" stroke-width="2"></path></g><defs><mask id="SvgjsMask1076"><rect width="1920" height="1080" fill="#ffffff"></rect></mask></defs></svg>