<svg xmlns="http://www.w3.org/2000/svg" version="1.1" xmlns:xlink="http://www.w3.org/1999/xlink" xmlns:svgjs="http://svgjs.dev/svgjs" width="1920" height="1080" preserveAspectRatio="none" viewBox="0 0 1920 1080"><g mask="url(&quot;#SvgjsMask1099&quot;)" fill="none"><path d="M350.89 1194.75C524.06 1175.54 628.77 796.75 921.78 795.02 1214.8 793.29 1207.23 930.02 1492.68 930.02 1778.12 930.02 1916.91 795.93 2063.57 795.02" stroke="rgba(55, 66, 250, 0.22)" stroke-width="2"></path><path d="M504.51 1178.22C762.6 1158.46 942.33 647.88 1393.1 646.78 1843.87 645.68 2052.43 871.8 2281.69 873.58" stroke="rgba(55, 66, 250, 0.22)" stroke-width="2"></path><path d="M1201.83 1123.8C1347.61 1116.05 1412.12 885.08 1720.67 855.88 2029.22 826.68 2075.85 469.27 2239.51 445.48" stroke="rgba(55, 66, 250, 0.22)" stroke-width="2"></path><path d="M273.05 1194.67C487.68 1139.44 553.42 562.3 884.05 552.35 1214.68 542.4 1189.54 687.35 1495.04 687.35 1800.54 687.35 1949.61 553.15 2106.04 552.35" stroke="rgba(55, 66, 250, 0.22)" stroke-width="2"></path><path d="M1262.55 1109.24C1407.1 1016.34 1241.33 596.28 1586.41 503 1931.49 409.72 2039.06 80.68 2234.14 60.2" stroke="rgba(55, 66, 250, 0.22)" stroke-width="2"></path></g><defs><mask id="SvgjsMask1099"><rect width="1920" height="1080" fill="#ffffff"></rect></mask></defs></svg>