<svg width="41" height="25" viewBox="0 0 41 25" fill="none" xmlns="http://www.w3.org/2000/svg">
<path d="M9.37374 5.77628C10.3922 5.77628 11.3089 5.93296 12.1237 6.24634C12.9541 6.55972 13.6671 7.01413 14.2625 7.60955C14.8579 8.1893 15.3123 8.87874 15.6257 9.67786C15.9547 10.477 16.1193 11.3623 16.1193 12.3338C16.1193 13.5716 15.8607 14.6606 15.3436 15.6007C14.8422 16.5252 14.1528 17.246 13.2753 17.7631C12.3979 18.2801 11.4185 18.5387 10.3374 18.5387C9.91432 18.5387 9.51477 18.4917 9.13871 18.3977C8.76265 18.3036 8.41793 18.1705 8.10455 17.9981C7.79117 17.8101 7.51697 17.575 7.28193 17.293H7.14091V23.2394H2.62823V12.3808C2.62823 11.0489 2.91028 9.88939 3.47436 8.90224C4.03845 7.9151 4.82973 7.14731 5.84822 6.5989C6.8667 6.05048 8.04188 5.77628 9.37374 5.77628ZM9.37374 9.72487C8.96635 9.72487 8.59813 9.82671 8.26908 10.0304C7.94003 10.2341 7.68149 10.5162 7.49346 10.8765C7.3211 11.2369 7.23492 11.66 7.23492 12.1457C7.23492 12.5845 7.3211 12.984 7.49346 13.3444C7.68149 13.6891 7.94003 13.9633 8.26908 14.167C8.59813 14.3707 8.96635 14.4726 9.37374 14.4726C9.79681 14.4726 10.165 14.3707 10.4784 14.167C10.8075 13.9633 11.0582 13.6891 11.2305 13.3444C11.4185 12.984 11.5126 12.5845 11.5126 12.1457C11.5126 11.66 11.4185 11.2369 11.2305 10.8765C11.0582 10.5162 10.8075 10.2341 10.4784 10.0304C10.165 9.82671 9.79681 9.72487 9.37374 9.72487Z" fill="black"/>
<path d="M24.7371 18.5386C23.5149 18.5386 22.3946 18.2722 21.3761 17.7395C20.3733 17.2067 19.5664 16.4625 18.9553 15.5066C18.3598 14.5352 18.0621 13.4227 18.0621 12.1692C18.0621 10.9156 18.3598 9.81097 18.9553 8.85516C19.5664 7.89935 20.3811 7.15507 21.3996 6.62232C22.4181 6.07391 23.5385 5.7997 24.7606 5.7997C25.9828 5.7997 27.0953 6.07391 28.0981 6.62232C29.101 7.15507 29.9001 7.89935 30.4955 8.85516C31.0909 9.81097 31.3886 10.9156 31.3886 12.1692C31.3886 13.4227 31.0909 14.5352 30.4955 15.5066C29.9001 16.4625 29.0931 17.2067 28.0746 17.7395C27.0718 18.2722 25.9593 18.5386 24.7371 18.5386ZM24.7371 14.496C25.1602 14.496 25.5363 14.3941 25.8653 14.1905C26.1944 13.9868 26.4451 13.7125 26.6174 13.3678C26.8054 13.0074 26.8995 12.6 26.8995 12.1456C26.8995 11.6912 26.8054 11.2917 26.6174 10.947C26.4451 10.6023 26.1944 10.328 25.8653 10.1243C25.5363 9.92065 25.1602 9.8188 24.7371 9.8188C24.3141 9.8188 23.938 9.92065 23.609 10.1243C23.2799 10.328 23.0214 10.6023 22.8333 10.947C22.6453 11.2917 22.5513 11.6912 22.5513 12.1456C22.5513 12.6 22.6453 13.0074 22.8333 13.3678C23.0214 13.7125 23.2799 13.9868 23.609 14.1905C23.938 14.3941 24.3141 14.496 24.7371 14.496Z" fill="black"/>
<path d="M36.0973 1.57693C36.8337 1.57693 37.437 1.82764 37.907 2.32905C38.3614 2.84612 38.5886 3.44938 38.5886 4.13882C38.5886 4.56188 38.5416 4.97711 38.4476 5.3845C38.3379 5.7919 38.1969 6.23846 38.0245 6.7242L36.8964 9.63864L33.8644 9.63864L35.1101 6.23063C34.7027 6.0426 34.3658 5.74489 34.0995 5.3375C33.8331 4.94577 33.6999 4.53054 33.6999 4.09181C33.6999 3.37104 33.9428 2.76778 34.4285 2.28204C34.8986 1.81197 35.4548 1.57693 36.0973 1.57693Z" fill="#3742FA"/>
</svg>
